<?xml version="1.0" encoding="utf-8"?>
<!-- Generator: Adobe Illustrator 18.1.0, SVG Export Plug-In . SVG Version: 6.00 Build 0)  -->
<!DOCTYPE svg PUBLIC "-//W3C//DTD SVG 1.1//EN" "http://www.w3.org/Graphics/SVG/1.1/DTD/svg11.dtd">
<svg version="1.1" id="Layer_1" xmlns="http://www.w3.org/2000/svg" xmlns:xlink="http://www.w3.org/1999/xlink" x="0px" y="0px"
	 viewBox="0 0 1100 1100" enable-background="new 0 0 1100 1100" xml:space="preserve">
<g>
	
		<ellipse transform="matrix(2.176275e-02 -0.9998 0.9998 2.176275e-02 -49.296 1063.9384)" fill="none" cx="519" cy="557.2" rx="465.4" ry="465.5"/>
	<g>
		<g>
			<g>
				<path fill="#FFFFFF" d="M822.7,585.9c-4.8,49.4-21.6,96.6-48.4,137.6l126.8,99.3c47.3-69.8,76.3-151.1,82.6-234L822.7,585.9z"/>
			</g>
		</g>
		<g>
			<g>
				<path fill="#FFFFFF" d="M268.1,729.4L126,806.8c62.1,93.7,157.7,164.8,263.1,196l35.7-156.4
					C361.9,825.9,306.4,785.1,268.1,729.4z"/>
			</g>
		</g>
		<g>
			<g>
				<path fill="#FFFFFF" d="M742.3,764.4c-35.1,37.8-80.4,67.1-133.2,83.4c-44.4,13.7-89.4,16.7-132.5,10.6l-35.8,156.6
					c71.4,12.3,146.1,7.7,215.6-13.8c83-25.6,156.9-72.9,212.9-138L742.3,764.4z"/>
			</g>
		</g>
	</g>
	<g>
		<g>
			<g>
				<path fill="#FFFFFF" d="M247.4,695.1L98.2,755.8c37.1,75.7,93.3,141.2,162.1,187.9l82.5-138.3
					C302.3,776.7,269.7,738.7,247.4,695.1z"/>
			</g>
		</g>
		<g>
			<g>
				<path fill="#FFFFFF" d="M221.5,489.9c10.2-45.3,29.9-85.9,56.6-120.3L159.9,260.8c-46.1,55.8-79.2,123-95.1,194
					c-19,84.8-14.6,172.4,14.1,253.4L227.8,647C212.5,597.7,209.4,543.9,221.5,489.9z"/>
			</g>
		</g>
	</g>
	<g>
		<path fill="#FFFFFF" d="M411.8,104.1l6.4-1.5l34.5,156.9l-4,0.9c-4.6,1.1-9.1,2.3-13.6,3.5l-44-154.4
			C398,107.5,404.9,105.7,411.8,104.1z M431.7,99.8c9.1-1.7,18.3-3.2,27.5-4.4l20.7,159.3c-6,0.8-12,1.7-18,2.9L431.7,99.8z
			 M377.9,113.4l48.5,153.1c-5.8,1.8-11.6,3.8-17.2,6l-57.6-149.9C360.2,119.3,369,116.2,377.9,113.4z M473,93.8
			c9.2-0.9,18.5-1.6,27.7-1.9l6.5,160.4c-6,0.3-12.1,0.7-18.2,1.3L473,93.8z M338.8,127.8l62,148.1c-5.6,2.4-11.1,4.9-16.5,7.5
			l-70.9-144.1C321.6,135.2,330.2,131.4,338.8,127.8z M514.6,91.5c9.3-0.1,18.6,0.1,27.9,0.6l-8.1,160.4c-6-0.3-12.1-0.4-18.1-0.4
			L514.6,91.5z M300.9,145.7l75.2,141.9c-5.4,2.9-10.7,5.9-15.9,9l-83.5-137.2C284.6,154.7,292.7,150,300.9,145.7z M556.4,92.9
			c9.2,0.8,18.6,1.8,27.7,3.1l-22.5,159c-6-0.9-12.1-1.6-18.1-2L556.4,92.9z M264.9,166.9l87.6,134.6c-5.1,3.3-10.1,6.8-14.9,10.4
			l-95.6-129C249.5,177.3,257.2,171.9,264.9,166.9z M598,98.2c9.1,1.6,18.3,3.4,27.3,5.6l-36.7,156.3c-5.9-1.4-11.9-2.6-17.9-3.7
			L598,98.2z M231,191.2l99.5,126.1c-4.8,3.8-9.4,7.7-14,11.7L209.7,209C216.6,202.9,223.8,196.9,231,191.2z M638.8,107.2
			c8.9,2.4,17.9,5.1,26.7,8l-50.7,152.4c-5.8-1.9-11.6-3.7-17.5-5.2L638.8,107.2z M678.7,119.8c8.6,3.1,17.3,6.6,25.8,10.4
			l-64.1,147.3c-5.6-2.5-11.3-4.7-17-6.8L678.7,119.8z M170.5,248.4l120.4,106.4c-4.1,4.5-8,9.2-11.7,14l-126.4-99.1
			C158.4,262.5,164.4,255.3,170.5,248.4z M717.2,135.9c8.4,3.9,16.7,8.1,24.8,12.6l-77,140.9c-5.4-2.9-10.8-5.7-16.3-8.3
			L717.2,135.9z M754.1,155.3c7.9,4.6,15.9,9.6,23.6,14.8l-89.2,133.5c-5.1-3.4-10.2-6.6-15.5-9.7L754.1,155.3z M789.1,177.9
			c7.5,5.4,15,11,22.2,16.8l-100.8,125c-4.7-3.8-9.6-7.5-14.5-11L789.1,177.9z M821.9,203.6c7,6,14,12.3,20.6,18.7L730.9,337.9
			c-4.4-4.2-8.8-8.3-13.5-12.2L821.9,203.6z M852.4,232.1c6.4,6.6,12.8,13.5,18.8,20.5L749.7,357.7c-4-4.6-8.1-9-12.3-13.4
			L852.4,232.1z M60.5,636.9l158.2-27.7c1.1,6,2.3,11.9,3.7,17.9l0.4,1.5l-156.3,37l-0.2-0.7C63.9,655.1,62.1,646,60.5,636.9z
			 M823.7,567.6l160.5,5.4c-0.3,9.3-0.9,18.6-1.8,27.9l-159.9-15.2C823.1,579.7,823.5,573.7,823.7,567.6z M821.5,594.8l159.4,19.9
			c-1.1,9.1-2.6,18.5-4.3,27.6l-157.9-29.5C819.8,606.9,820.7,600.9,821.5,594.8z M816.9,621.8L973.8,656c-2,9-4.2,18.1-6.7,27
			l-154.6-43.6C814.1,633.6,815.6,627.7,816.9,621.8z M288.6,756.6c4,4.6,8.1,9.1,12.4,13.4L186.2,882.4
			c-6.4-6.6-12.8-13.4-18.9-20.4L288.6,756.6z M809.8,648.2L963,696.4c-2.8,8.8-5.9,17.7-9.2,26.3l-150-57.4
			C806,659.7,808,654,809.8,648.2z M800.5,673.9l148.3,61.8c-3.5,8.5-7.4,17-11.4,25.3l-144.3-70.4
			C795.6,685.1,798.1,679.5,800.5,673.9z M788.8,698.7L931,773.4c-4.3,8.2-8.9,16.3-13.7,24.2l-137.4-83.1
			C783,709.4,786,704.1,788.8,698.7z M350,810.6c5.1,3.4,10.2,6.6,15.5,9.7l-80.9,138.7c-8-4.6-15.9-9.6-23.6-14.7L350,810.6z
			 M373.4,824.8c5.4,2.9,10.8,5.7,16.4,8.2l-68.2,145.4c-8.3-3.9-16.6-8.1-24.8-12.5L373.4,824.8z M476.9,858.9c6,0.8,12,1.5,18.1,2
			L482.4,1021c-9.2-0.7-18.6-1.8-27.8-3L476.9,858.9z"/>
	</g>
	<g>
		<g>
			<g>
				<g>
					<path fill="#FFFFFF" d="M616.4,753.6c1-6.5,1.6-13.1,1.6-19.9c0-49.7-27.5-92.1-66.2-108.8c0,0-4.6-1.7-10.8-3.5
						c19-9.4,32.1-28.5,32.1-50.7c0-31.5-26.2-57.1-58.5-57.1c-32.3,0-58.5,25.6-58.5,57.1c0,22.2,13.2,41.3,32.2,50.7
						c-5.8,1.9-9.8,3.7-9.8,3.7c-38.5,16.9-65.8,59.1-65.8,108.6c0,6.8,0.6,13.4,1.6,19.9c15.4,19,38.7,33.4,66.1,40.2
						c11.8,2,23.7,3.1,35.8,3.1c6.3,0,12.4-0.3,18.7-0.8c3.4-0.3,6.8-0.7,10.2-1.1C574.7,788.8,600,773.8,616.4,753.6z"/>
				</g>
			</g>
		</g>
		<path fill="#FFFFFF" d="M377,428.7c-6.7-0.1-13.6,1.3-19.8,5c-18.2,10.6-24.3,34.1-13.8,52.3c10.6,18.2,33.9,24.3,52.1,13.8
			c2.2-1.3,4.3-2.7,6.1-4.3l47.4,35.2c2.7-4.4,5.9-8.4,9.5-12.2l-47.6-35.4c5.2-11,5-24.1-1.6-35.4C402.4,435.7,389.9,429,377,428.7
			z M439.1,578.5l-97.9,24.6c-0.5-1.1-0.7-2.3-1.4-3.4c-6.9-12-19.4-18.7-32.2-18.9c-6.7-0.1-13.8,1.6-20.1,5.2
			c-18.2,10.6-24.3,33.9-13.8,52.1c10.6,18.2,33.9,24.5,52.1,14c12.5-7.2,19.3-20.6,18.9-34l97.9-24.4c-1.7-4.7-2.8-9.4-3.4-14.4
			C439.3,579,439.1,578.7,439.1,578.5z M578,602.9c-2.3,4.6-5.1,9.1-8.3,13.1l89.3,58c-4.2,10.5-3.9,22.8,2.3,33.4
			c10.6,18.2,34.1,24.3,52.3,13.8c18.2-10.6,24.3-33.9,13.8-52.1c-7.3-12.5-20.5-19.3-34-18.9c-6.1,0.2-12.3,1.9-18,5.2
			c-2.8,1.6-5.4,3.5-7.7,5.6L578,602.9z"/>
		<path fill="#FFFFFF" d="M546.4,506.4l48-124.9c2.5,0.4,5.1,0.7,7.7,0.7c6.1-0.2,12.3-1.9,18-5.2c18.2-10.6,24.3-33.9,13.8-52.1
			c-10.6-18.2-33.9-24.5-52.1-14c-18.2,10.6-24.3,33.9-13.8,52.1c3,5.2,7.1,9.5,11.7,12.6L532,500.5
			C537,501.9,541.9,503.9,546.4,506.4z"/>
	</g>
	<rect x="517.1" y="350.1" fill="none" width="532.9" height="218.2"/>
	<rect x="50" y="73.1" fill="none" width="470.7" height="953.8"/>
	<path fill="#FFFFFF" d="M983.6,273.9c-1,20.9-2,41.8-2.9,62.7c-0.2,3.9-1,7.2-4.9,9.3c-1.2,0.7-2.3,0.9-3.2,0.9
		c-2.5,0-4.3-1.9-6.1-3.8c-5-5.1-10.1-10.1-15.1-15.1c-0.7-0.7-1.4-1.3-2.1-1.9l-2.1-2.1l-7.2,7.2l-59.3,59.3l-5.3,5.3l-13,13
		l-61.1,61.1l-3.5,3.5c-2.8,2.8-6.4,4.1-10,4.1s-7.2-1.4-10-4.1l-3.5-3.5l-13-13l-61.1-61.1l-3-3l-64,64c-2.8,2.8-6.4,4.1-10,4.1
		c-3.6,0-7.2-1.4-10-4.1l-3.5-3.5c-5.5-5.5-5.5-14.5,0-20l74-74l3.5-3.5c2.8-2.8,6.4-4.1,10-4.1c3.6,0,7.2,1.4,10,4.1l3.5,3.5l13,13
		l61.1,61.1l3,3l51.1-51.1l13-13l5.3-5.3l59.3-59.3l7.3-7.3c-6.7-6.5-13.2-13.1-19.8-19.7c-2.3-2.3-4.4-4.5-2.5-8.5
		c1.8-4,5.1-4.2,8.4-4.3c21.4-1,42.9-2,64.3-3c0.3,0,0.7,0,1,0C981.2,264.7,983.9,267.6,983.6,273.9z M645.9,469.3
		c-2.9,2.9-6.3,5.2-9.9,6.8v19.8v32.7c0,7.8,6.3,14.1,14.1,14.1h31.8c7.8,0,14.1-6.3,14.1-14.1v-32.7v-41.7v-32.7
		c0-0.7-0.1-1.4-0.2-2L645.9,469.3z M765.2,485.8l-3.5-3.5l-13-13l-27.9-27.9c-1.2,2.1-2,4.5-2,7.2v5.6V523v5.6
		c0,7.8,6.3,14.1,14.1,14.1h31.8c7.8,0,14.1-6.3,14.1-14.1V523l0,0v-29.1C773.7,492.4,769.1,489.7,765.2,485.8z M813.9,482.3
		l-3.5,3.5c-2.6,2.6-5.5,4.7-8.7,6.2v31l0,0v5.6c0,7.8,6.3,14.1,14.1,14.1h31.8c7.8,0,14.1-6.3,14.1-14.1V523v-68.8v-5.6
		c0-3.9-1.6-7.4-4.1-10L813.9,482.3z M893.2,403l-5.3,5.3l-3.4,3.4v9.7v6.7v26.1v6.7v35v32.7c0,7.8,6.3,14.1,14.1,14.1h31.8
		c7.8,0,14.1-6.3,14.1-14.1v-32.7v-35v-6.7v-26.1v-6.7v-35v-32.7c0-0.6-0.1-1.3-0.1-1.9L893.2,403z"/>
</g>
</svg>
